<?xml version="1.0" standalone="no"?>
<!DOCTYPE svg PUBLIC "-//W3C//DTD SVG 20010904//EN"
 "http://www.w3.org/TR/2001/REC-SVG-20010904/DTD/svg10.dtd">
<svg version="1.0" xmlns="http://www.w3.org/2000/svg"
 width="260.000000pt" height="260.000000pt" viewBox="0 0 260.000000 260.000000"
 preserveAspectRatio="xMidYMid meet">
<metadata>
Created by potrace 1.11, written by Peter Selinger 2001-2013
</metadata>
<g transform="translate(0.000000,260.000000) scale(0.100000,-0.100000)"
fill="#000000" stroke="none">
<path d="M1380 2561 c-11 -8 -45 -14 -74 -13 -46 0 -60 -5 -92 -31 -21 -17
-45 -32 -53 -34 -9 -1 -43 -5 -76 -9 -39 -4 -64 -12 -72 -23 -6 -10 -31 -23
-55 -30 -24 -7 -51 -20 -61 -29 -9 -8 -27 -20 -39 -26 -12 -6 -31 -34 -43 -63
-25 -63 -28 -66 -63 -68 -15 -1 -32 -4 -37 -7 -9 -5 -87 -25 -131 -33 -11 -2
-19 -4 -19 -5 0 -2 -17 -6 -55 -14 -44 -10 -69 -16 -92 -22 -13 -3 -32 -7 -43
-9 -34 -6 -65 -14 -88 -21 -27 -8 -87 -73 -87 -95 0 -9 -3 -19 -8 -23 -4 -4
-8 -16 -8 -27 -1 -10 -2 -20 -4 -21 -1 -2 -3 -10 -5 -18 -2 -8 -13 -51 -24
-95 -15 -58 -18 -88 -11 -110 5 -16 14 -49 21 -72 7 -24 15 -43 19 -43 7 0 38
-119 46 -172 17 -116 44 -210 68 -234 27 -26 78 -62 91 -62 23 -2 95 -34 91
-41 -3 -4 5 -7 17 -7 18 1 22 -4 20 -24 -5 -49 -4 -155 1 -175 10 -45 37 -106
93 -214 52 -101 63 -116 93 -126 19 -7 55 -21 80 -32 61 -27 83 -36 95 -37 41
-6 115 -66 115 -93 0 -7 5 -13 10 -13 6 0 10 -7 10 -15 0 -8 3 -15 8 -15 4 0
12 -8 17 -19 16 -30 67 -106 75 -111 33 -22 224 -174 254 -202 38 -34 115 -15
162 41 l35 41 22 -20 c11 -11 24 -20 29 -20 10 0 78 92 113 152 24 44 25 49
11 64 -17 17 -20 30 -8 36 15 6 72 99 76 124 3 14 0 33 -6 43 -10 17 -8 23 84
191 17 30 35 60 39 66 17 21 13 60 -10 109 -13 27 -19 51 -15 52 5 2 34 16 64
31 49 24 59 35 92 97 21 39 35 76 33 83 -2 6 0 13 5 13 6 1 15 3 20 4 6 1 17
3 25 4 9 0 30 17 48 36 45 48 51 56 80 101 13 21 36 51 49 65 18 20 23 31 16
43 -5 9 -6 21 -3 26 4 6 1 9 -6 8 -7 -2 -17 7 -24 18 -6 12 -17 29 -24 37 -7
9 -10 21 -6 27 4 6 1 9 -7 8 -7 -2 -13 4 -13 12 0 8 29 31 65 52 36 21 87 61
114 88 l49 51 -68 97 c-37 53 -96 141 -132 194 -36 54 -95 130 -131 169 -37
40 -84 95 -105 122 -21 28 -51 62 -65 74 -15 13 -40 36 -57 52 -50 49 -161
111 -174 98 -6 -6 -11 -8 -11 -5 0 4 -16 1 -37 -6 -34 -12 -39 -10 -112 31
-66 37 -82 43 -127 40 -29 -1 -62 -8 -74 -16z"/>
<path d="M740 2326 c0 -2 8 -10 18 -17 15 -13 16 -12 3 4 -13 16 -21 21 -21
13z"/>
<path d="M2156 2218 c3 -5 10 -6 15 -3 13 9 11 12 -6 12 -8 0 -12 -4 -9 -9z"/>
<path d="M99 1633 c-13 -16 -12 -17 4 -4 9 7 17 15 17 17 0 8 -8 3 -21 -13z"/>
<path d="M2295 1540 c-3 -5 -1 -10 4 -10 6 0 11 5 11 10 0 6 -2 10 -4 10 -3 0
-8 -4 -11 -10z"/>
<path d="M2290 1499 c0 -5 5 -7 10 -4 6 3 10 8 10 11 0 2 -4 4 -10 4 -5 0 -10
-5 -10 -11z"/>
<path d="M2355 1440 c-3 -5 -1 -10 4 -10 6 0 11 5 11 10 0 6 -2 10 -4 10 -3 0
-8 -4 -11 -10z"/>
<path d="M2115 1111 c-3 -5 -2 -12 3 -15 5 -3 9 1 9 9 0 17 -3 19 -12 6z"/>
<path d="M1955 899 c-3 -4 2 -6 10 -5 21 3 28 13 10 13 -9 0 -18 -4 -20 -8z"/>
<path d="M1935 861 c-3 -5 -2 -12 3 -15 5 -3 9 1 9 9 0 17 -3 19 -12 6z"/>
<path d="M887 459 c7 -7 15 -10 18 -7 3 3 -2 9 -12 12 -14 6 -15 5 -6 -5z"/>
<path d="M793 445 c0 -8 4 -12 9 -9 5 3 6 10 3 15 -9 13 -12 11 -12 -6z"/>
<path d="M867 399 c7 -7 15 -10 18 -7 3 3 -2 9 -12 12 -14 6 -15 5 -6 -5z"/>
<path d="M1535 51 c-3 -5 -2 -12 3 -15 5 -3 9 1 9 9 0 17 -3 19 -12 6z"/>
</g>
</svg>
