<svg xmlns="http://www.w3.org/2000/svg" width="175.192" height="38.395" viewBox="0 0 175.192 38.395">
  <path id="Path_1" data-name="Path 1" d="M57.2,19.326h6V41.107H73.731V19.326H79.7V10H57.2ZM17.319,31.782h-7.4v9.325H20.546a11.972,11.972,0,0,0,1.437-.069,6.885,6.885,0,0,0,5.873-6.6V10H17.319Zm38.629-1.936c0-.828-.033-1.619-.078-2.447H52.644c0,.7.122,1.456.078,2.166-.044.694-.078,1.365-.13,2.061L40.5,21.471c-1.629-1.361-2.163-2.154-2.163-4.351,0-4.108,2.652-4.231,6.013-4.231,4.648,0,5.224.782,5.268,4.728v1.709h3.525V17.617c0-6.55-3.151-7.839-8.794-7.839-6.1,0-9.533,1.2-9.533,7.342,0,3.485.781,4.439,2.82,6.138-3.986,1.116-6.35.912-6.35,8.458,0,9.7,4.934,9.663,11.819,9.663,4.975,0,9.833,0,11.61-4.071l4.608,3.817,1.9-2.444-5.638-4.475A22.122,22.122,0,0,0,55.948,29.846ZM43.1,38.27c-7.334,0-8.289-.455-8.289-6.513,0-4.933.455-5.565,5.016-6.593l12.15,9.991C51.233,38.555,46.455,38.27,43.1,38.27ZM89.07,19.338h2.521v19.55h9.438v2.183H89.07Zm12.6,13.648c0-6.793,3.289-9.131,7.5-9.131,4.151,0,6.055,2.828,6.055,8.394v.892h-11.1c.094,5.347,2.735,6.21,6.209,6.21a20.012,20.012,0,0,0,4.152-.709l.429,2a16.563,16.563,0,0,1-5.318.8C104.748,41.441,101.674,39.413,101.674,32.986Zm11.005-1.66c0-3.379-1.229-5.655-3.873-5.655-2.521,0-4.334,1.906-4.643,5.655Zm4.154,5.228c0-4.09,3.688-4.981,6.424-5.043l4-.061V29.205c0-2.674-1.32-3.2-4.3-3.2a16.055,16.055,0,0,0-4.149.768l-.524-1.906a15.433,15.433,0,0,1,5.38-.984c3.718,0,5.964,1.2,5.964,4.521V37.72c0,1.262.829,1.538,1.567,1.632l-.154,1.9h-.429c-1.384,0-2.983-.613-3.166-2.119a9.1,9.1,0,0,1-5.842,2.183C118.584,41.319,116.833,39.657,116.833,36.554Zm10.419.951V33.141l-4.025.152c-2.615.092-4.058,1.354-4.058,3.044,0,2.245,1.2,3.014,3.042,3.014C124.334,39.352,126.823,37.753,127.252,37.505Zm5.6,3.2.43-2a19.849,19.849,0,0,0,4.274.708c2.613,0,4.212-1.016,4.212-2.615,0-3.873-8.455-2.582-8.455-8.33,0-3.014,2.461-4.613,5.75-4.613a14.035,14.035,0,0,1,4.057.708l-.43,1.936a13.028,13.028,0,0,0-3.875-.616c-2.119,0-3.135,1.108-3.135,2.431,0,3.872,8.394,2.8,8.394,8.27,0,3.84-3.535,4.825-6.3,4.825A16.567,16.567,0,0,1,132.85,40.7Zm14.389-16.416H149.7V41.071h-2.459Zm.031-6.641H149.7v2.831h-2.428Zm6.4,6.641h2.428v1.906a10.052,10.052,0,0,1,5.842-2.337c4.947,0,5.224,3.5,5.224,6.394V41.071h-2.367V30.713c0-2.892-.4-4.7-3.474-4.7-1.937,0-3.9,1.26-5.226,2.06v13h-2.428ZM185.114,26.9H182.07a5,5,0,0,1,.616,2.644c0,3.227-2.767,5.472-6.271,5.472a8.552,8.552,0,0,1-3.657-.737v3.074h4.673c4.488,0,6.577,1.967,6.577,4.549,0,3.044-3.042,6.271-8.422,6.271-4.336,0-6.549-1.815-6.549-4.427a6.253,6.253,0,0,1,2.428-4.427,1.751,1.751,0,0,1-1.013-1.693,7.919,7.919,0,0,1,1.381-3.9,4.936,4.936,0,0,1-1.781-4.058c0-3.105,2-5.84,6.21-5.84a6.448,6.448,0,0,1,4.086,1.138l4.765-.092ZM181.8,42.27c0-1.506-1.477-2.705-4.7-2.705h-4a5.1,5.1,0,0,0-1.723,3.444c0,1.751,1.658,3.105,4.889,3.105C179.459,46.114,181.8,44.085,181.8,42.27Zm-1.538-12.82a3.629,3.629,0,0,0-3.812-3.872c-2.582,0-3.966,1.475-3.966,4,0,2.428,1.567,3.657,3.873,3.657A3.632,3.632,0,0,0,180.258,29.45Z" transform="translate(-9.922 -9.778)" fill="#323232"/>
</svg>
